<svg aria-hidden="true" style="position: absolute; width: 0; height: 0; overflow: hidden;" version="1.1" xmlns="http://www.w3.org/2000/svg" xmlns:xlink="http://www.w3.org/1999/xlink">
<defs>
<symbol id="icon-calendar" viewBox="0 0 30 32">
<path d="M24.614 3.967h-1.231v-2.644h-2.462v2.644h-12.308v-2.644h-2.462v2.644h-1.231c-1.354 0-2.462 1.19-2.462 2.644v21.151c0 1.454 1.108 2.644 2.462 2.644h19.692c1.354 0 2.462-1.19 2.462-2.644v-21.151c0-1.454-1.108-2.644-2.462-2.644zM24.614 27.762h-19.692v-17.185h19.692v17.185z"></path>
</symbol>
<symbol id="icon-globe" viewBox="0 0 32 32">
<path d="M27.078 4.647c-6.198-6.198-16.23-6.199-22.429 0s-6.199 16.23 0 22.429c6.198 6.198 16.23 6.199 22.429 0s6.199-16.23 0-22.429zM26.415 24.815c-0.741-0.663-1.534-1.249-2.369-1.755 0.552-1.908 0.879-4.007 0.957-6.189h4.663c-0.211 2.941-1.341 5.7-3.25 7.943zM2.062 16.872h4.663c0.077 2.182 0.404 4.281 0.957 6.189-0.835 0.505-1.628 1.092-2.369 1.755-1.909-2.243-3.039-5.002-3.25-7.943zM5.312 6.908c0.741 0.663 1.534 1.249 2.369 1.754-0.552 1.908-0.879 4.007-0.957 6.189h-4.663c0.211-2.941 1.341-5.7 3.25-7.943zM14.853 8.871c-1.648-0.118-3.238-0.524-4.711-1.194 0.857-2.207 2.437-4.853 4.711-5.509v6.703zM14.853 10.896v3.955h-6.106c0.070-1.846 0.332-3.618 0.766-5.24 1.674 0.732 3.475 1.169 5.34 1.285zM14.853 16.872v3.955c-1.865 0.116-3.666 0.553-5.34 1.285-0.435-1.622-0.696-3.394-0.766-5.24h6.106zM14.853 22.852v6.703c-2.274-0.656-3.854-3.302-4.711-5.509 1.473-0.67 3.063-1.076 4.711-1.194zM16.875 22.852c1.648 0.118 3.238 0.524 4.711 1.194-0.857 2.207-2.437 4.853-4.711 5.509v-6.703zM16.875 20.827v-3.955h6.106c-0.070 1.846-0.332 3.618-0.766 5.24-1.675-0.732-3.475-1.169-5.34-1.285zM16.875 14.851v-3.955c1.865-0.116 3.666-0.553 5.34-1.285 0.435 1.622 0.696 3.394 0.766 5.24h-6.106zM16.875 8.871v-6.703c2.274 0.656 3.854 3.302 4.711 5.509-1.473 0.67-3.063 1.076-4.711 1.194zM21.414 3.178c1.294 0.567 2.501 1.335 3.583 2.288-0.515 0.454-1.058 0.866-1.626 1.234-0.504-1.248-1.148-2.46-1.957-3.522zM8.357 6.699c-0.567-0.368-1.111-0.78-1.626-1.234 1.082-0.953 2.289-1.721 3.583-2.288-0.809 1.062-1.453 2.274-1.957 3.522zM8.357 25.024c0.504 1.248 1.148 2.46 1.957 3.522-1.294-0.567-2.501-1.335-3.583-2.288 0.515-0.454 1.058-0.866 1.626-1.234zM23.371 25.024c0.567 0.368 1.111 0.78 1.626 1.234-1.082 0.953-2.289 1.721-3.583 2.288 0.809-1.061 1.453-2.274 1.957-3.522zM25.003 14.851c-0.077-2.182-0.404-4.281-0.957-6.189 0.836-0.505 1.628-1.092 2.369-1.754 1.91 2.243 3.039 5.002 3.25 7.943h-4.663z"></path>
</symbol>
<symbol id="icon-Facebook" viewBox="0 0 16 32">
<path d="M10 11v-4c0-1.104 0.896-2 2-2h2v-5h-4c-3.314 0-6 2.686-6 6v5h-4v5h4v16h6v-16h4l2-5h-6z"></path>
</symbol>
<symbol id="icon-Video" viewBox="0 0 52 32">
<path d="M3.368 3.886h26.3c1.86 0 3.368 1.508 3.368 3.368v16.583c0 1.86-1.508 3.368-3.368 3.368h-26.3c-1.86 0-3.368-1.508-3.368-3.368v-16.583c0-1.86 1.508-3.368 3.368-3.368z"></path>
<path d="M35.865 16.722c-0.637-0.654-0.637-1.697 0-2.351l9.082-9.322c1.054-1.082 2.891-0.336 2.891 1.175v18.643c0 1.511-1.836 2.258-2.891 1.175l-9.082-9.322z"></path>
</symbol>
<symbol id="icon-Inform" viewBox="0 0 32 32">
<path d="M17.116 14.512c0-0.616-0.5-1.116-1.116-1.116s-1.116 0.5-1.116 1.116v8.93c0 0.616 0.5 1.116 1.116 1.116s1.116-0.5 1.116-1.116v-8.93z"></path>
<path d="M16 0c-8.837 0-16 7.163-16 16s7.163 16 16 16c8.837 0 16-7.163 16-16s-7.163-16-16-16zM2.233 16c0-7.604 6.164-13.767 13.767-13.767s13.767 6.164 13.767 13.767c0 7.604-6.164 13.767-13.767 13.767s-13.767-6.164-13.767-13.767z"></path>
<path d="M17.488 10.047c0 0.822-0.666 1.488-1.488 1.488s-1.488-0.666-1.488-1.488c0-0.822 0.666-1.488 1.488-1.488s1.488 0.666 1.488 1.488z"></path>
</symbol>
<symbol id="icon-instagram" viewBox="0 0 32 32">
<path d="M31.969 9.408c-0.075-1.7-0.35-2.869-0.744-3.882-0.406-1.075-1.031-2.038-1.85-2.838-0.8-0.813-1.769-1.444-2.832-1.844-1.019-0.394-2.182-0.669-3.882-0.744-1.713-0.081-2.257-0.1-6.601-0.1s-4.888 0.019-6.595 0.094c-1.7 0.075-2.869 0.35-3.882 0.744-1.075 0.406-2.038 1.031-2.838 1.85-0.813 0.8-1.444 1.769-1.844 2.832-0.394 1.019-0.669 2.182-0.744 3.882-0.081 1.713-0.1 2.257-0.1 6.601s0.019 4.888 0.094 6.595c0.075 1.7 0.35 2.869 0.744 3.882 0.406 1.075 1.038 2.038 1.85 2.838 0.8 0.813 1.769 1.444 2.832 1.844 1.019 0.394 2.182 0.669 3.882 0.744 1.706 0.075 2.25 0.094 6.595 0.094s4.888-0.019 6.595-0.094c1.7-0.075 2.869-0.35 3.882-0.744 2.151-0.831 3.851-2.532 4.682-4.682 0.394-1.019 0.669-2.182 0.744-3.882 0.075-1.707 0.094-2.25 0.094-6.595s-0.006-4.888-0.081-6.595zM29.087 22.473c-0.069 1.563-0.331 2.407-0.55 2.969-0.538 1.394-1.644 2.5-3.038 3.038-0.563 0.219-1.413 0.481-2.969 0.55-1.688 0.075-2.194 0.094-6.464 0.094s-4.782-0.019-6.464-0.094c-1.563-0.069-2.407-0.331-2.969-0.55-0.694-0.256-1.325-0.663-1.838-1.194-0.531-0.519-0.938-1.144-1.194-1.838-0.219-0.563-0.481-1.413-0.55-2.969-0.075-1.688-0.094-2.194-0.094-6.464s0.019-4.782 0.094-6.464c0.069-1.563 0.331-2.407 0.55-2.969 0.256-0.694 0.663-1.325 1.2-1.838 0.519-0.531 1.144-0.938 1.838-1.194 0.563-0.219 1.413-0.481 2.969-0.55 1.688-0.075 2.194-0.094 6.464-0.094 4.276 0 4.782 0.019 6.464 0.094 1.563 0.069 2.407 0.331 2.969 0.55 0.694 0.256 1.325 0.662 1.838 1.194 0.531 0.519 0.938 1.144 1.194 1.838 0.219 0.563 0.481 1.413 0.55 2.969 0.075 1.688 0.094 2.194 0.094 6.464s-0.019 4.77-0.094 6.458z"></path>
<path d="M16.059 7.784c-4.538 0-8.22 3.682-8.22 8.22s3.682 8.22 8.22 8.22c4.539 0 8.22-3.682 8.22-8.22s-3.682-8.22-8.22-8.22zM16.059 21.337c-2.944 0-5.332-2.388-5.332-5.332s2.388-5.332 5.332-5.332c2.944 0 5.332 2.388 5.332 5.332s-2.388 5.332-5.332 5.332z"></path>
<path d="M26.524 7.458c0 1.060-0.859 1.919-1.919 1.919s-1.919-0.859-1.919-1.919c0-1.060 0.859-1.919 1.919-1.919s1.919 0.859 1.919 1.919z"></path>
</symbol>
<symbol id="icon-Flag" viewBox="0 0 28 32">
<path d="M9.619 18.131h0.548c4.78 0.225 7.966 2.648 10.655 2.927 0.163 0.011 0.326 0.011 0.488 0 2.927 0 5.536-2.638 5.536-3.485v-14.904c0-0.236-0.229-0.311-0.637-0.311-0.996 0-3.166 0.558-5.048 0.558-0.219 0-0.428 0-0.647 0-2.489-0.193-5.775-2.916-9.848-2.916-2.014 0.015-3.988 0.611-5.716 1.726-0.177-0.203-0.407-0.344-0.66-0.404s-0.517-0.036-0.757 0.068c-0.24 0.104-0.445 0.284-0.589 0.516s-0.218 0.505-0.215 0.784v26.248h-1.434c-0.343 0-0.673 0.147-0.915 0.408s-0.379 0.616-0.379 0.986c0 0.37 0.136 0.724 0.379 0.986s0.572 0.408 0.915 0.408h5.347c0.343 0 0.673-0.147 0.915-0.408s0.379-0.616 0.379-0.986c0-0.37-0.136-0.724-0.379-0.986s-0.572-0.408-0.915-0.408h-1.324v-10.261c1.413-0.341 2.854-0.524 4.302-0.547zM5.317 4.932c1.463-1.423 3.376-2.19 5.347-2.144 1.861 0.135 3.68 0.655 5.357 1.533 1.358 0.7 2.809 1.167 4.302 1.383h0.836c1.037-0.021 2.072-0.117 3.097-0.29v11.505c-0.81 0.835-1.868 1.336-2.987 1.415h-0.239c-1.026-0.197-2.028-0.517-2.987-0.954-2.494-1.119-5.141-1.789-7.837-1.984h-0.657c-1.445 0.014-2.885 0.176-4.302 0.482l0.070-10.947z"></path>
</symbol>
<symbol id="icon-Play" viewBox="0 0 32 32">
<path d="M16 0c8.837 0 16 7.163 16 16s-7.163 16-16 16c-8.837 0-16-7.163-16-16s7.163-16 16-16zM12.667 21.773l10-5.773-10-5.773v11.547z"></path>
</symbol>
<symbol id="icon-telegram" viewBox="0 0 32 32">
<path d="M12.556 20.242l-0.529 7.445c0.757 0 1.085-0.325 1.479-0.716l3.551-3.393 7.357 5.388c1.349 0.752 2.3 0.356 2.664-1.241l4.829-22.629 0.001-0.001c0.428-1.995-0.721-2.775-2.036-2.285l-28.387 10.868c-1.937 0.752-1.908 1.832-0.329 2.321l7.257 2.257 16.857-10.548c0.793-0.525 1.515-0.235 0.921 0.291l-13.636 12.244z"></path>
</symbol>
<symbol id="icon-Vector1" viewBox="0 0 32 32">
<path stroke-linejoin="miter" stroke-linecap="butt" stroke-miterlimit="4" stroke-width="5.0526" d="M1.815 29.949l26.505-27.382M28.321 2.567l-26.944 0.438M28.321 2.567l0.438 26.944"></path>
</symbol>
<symbol id="icon-Vector2" viewBox="0 0 32 32">
<path stroke-linejoin="miter" stroke-linecap="butt" stroke-miterlimit="4" stroke-width="5.0526" d="M29.474 1.786l-26.947 26.947M2.526 28.734h26.947M2.526 28.734v-26.947"></path>
</symbol>
<symbol id="icon-Yes" viewBox="0 0 32 32">
<path d="M16 0c-8.823 0-16 7.177-16 16s7.177 16 16 16c8.823 0 16-7.177 16-16s-7.177-16-16-16zM24.109 12.609l-8.667 8.666c-0.26 0.26-0.601 0.391-0.943 0.391s-0.683-0.131-0.943-0.391l-4.333-4.333c-0.521-0.521-0.521-1.364 0-1.885s1.364-0.521 1.885 0l3.391 3.391 7.724-7.724c0.521-0.521 1.364-0.521 1.885 0s0.521 1.364 0 1.885z"></path>
</symbol>
<symbol id="icon-youtube" viewBox="0 0 32 32">
<path d="M30.366 8.5c-0.346-1.285-1.359-2.298-2.644-2.644-2.348-0.642-11.738-0.642-11.738-0.642s-9.39 0-11.738 0.618c-1.26 0.346-2.298 1.384-2.644 2.669-0.618 2.347-0.618 7.216-0.618 7.216s0 4.893 0.618 7.216c0.346 1.285 1.359 2.298 2.644 2.644 2.372 0.643 11.738 0.643 11.738 0.643s9.39 0 11.738-0.618c1.285-0.346 2.298-1.359 2.644-2.644 0.618-2.348 0.618-7.216 0.618-7.216s0.025-4.893-0.618-7.24zM12.994 20.213v-8.995l7.809 4.497-7.809 4.497z"></path>
</symbol>
<symbol id="icon-Check" viewBox="0 0 32 32">
<path d="M16 0c-8.823 0-16 7.177-16 16s7.177 16 16 16c8.823 0 16-7.177 16-16s-7.177-16-16-16zM24.109 12.609l-8.667 8.666c-0.26 0.26-0.601 0.391-0.943 0.391s-0.683-0.131-0.943-0.391l-4.333-4.333c-0.521-0.521-0.521-1.364 0-1.885s1.364-0.521 1.885 0l3.391 3.391 7.724-7.724c0.521-0.521 1.364-0.521 1.885 0s0.521 1.364 0 1.885z"></path>
</symbol>
</defs>
</svg>
